Coordinates
version=1
nRows=13
nColumns=40
inDegrees=yes

Units are S.I. units (second, meters, Newtons, ...)
If the header above contains a line with 'inDegrees', this indicates whether rotational values are in degrees (yes) or radians (no).

endheader
time	pelvis_tilt	pelvis_list	pelvis_rotation	pelvis_tx	pelvis_ty	pelvis_tz	hip_flexion_r	hip_adduction_r	hip_rotation_r	knee_angle_r	knee_angle_r_beta	ankle_angle_r	subtalar_angle_r	mtp_angle_r	hip_flexion_l	hip_adduction_l	hip_rotation_l	knee_angle_l	knee_angle_l_beta	ankle_angle_l	subtalar_angle_l	mtp_angle_l	lumbar_extension	lumbar_bending	lumbar_rotation	arm_flex_r	arm_add_r	arm_rot_r	elbow_flex_r	pro_sup_r	wrist_flex_r	wrist_dev_r	arm_flex_l	arm_add_l	arm_rot_l	elbow_flex_l	pro_sup_l	wrist_flex_l	wrist_dev_l
      6.45500000	     89.56670236	     89.79600077	     89.56893707	      0.23531890	      0.94110379	      0.78589620	      6.85316180	    -32.88978034	    -32.65907779	      1.25798078	      0.02195591	    -22.13618347	      0.00000000	      0.00000000	      2.55858369	    -34.03866967	    -33.48564446	      1.91266762	      0.03338235	    -20.81400671	      0.00000000	      0.00000000	     -2.38352857	     -3.08707332	      7.77619233	      0.00000000	    -15.00032065	      0.00000000	     75.00017587	     45.00000026	      0.00000000	      0.00000000	      0.00000000	    -15.00032065	      0.00000000	     75.00017587	     45.00000026	      0.00000000	      0.00000000
      6.46000000	     89.55136801	     89.77816832	     89.55403977	      0.23504997	      0.94123034	      0.78581933	      6.89663216	    -32.88953468	    -32.54512386	      1.30112422	      0.02270890	    -22.13432120	      0.00000000	      0.00000000	      2.52750380	    -34.03790670	    -33.56827038	      1.89139036	      0.03301099	    -20.81470379	      0.00000000	      0.00000000	     -2.17241507	     -3.09196017	      7.82965953	      0.00000000	    -15.00032062	      0.00000000	     75.00017587	     45.00000026	      0.00000000	      0.00000000	      0.00000000	    -15.00032062	      0.00000000	     75.00017587	     45.00000026	      0.00000000	      0.00000000
      6.46500000	     89.53986998	     89.77383210	     89.54289601	      0.23476996	      0.94133804	      0.78573360	      6.90853670	    -32.89456243	    -32.45930633	      1.33320639	      0.02326884	    -22.11879390	      0.00000000	      0.00000000	      2.48662106	    -34.03835906	    -33.65321502	      1.87315911	      0.03269279	    -20.81477642	      0.00000000	      0.00000000	     -2.01738907	     -3.09184659	      7.88067447	      0.00000000	    -15.00032059	      0.00000000	     75.00017587	     45.00000026	      0.00000000	      0.00000000	      0.00000000	    -15.00032059	      0.00000000	     75.00017587	     45.00000026	      0.00000000	      0.00000000
      6.47000000	     89.56347908	     89.80673682	     89.56547905	      0.23445257	      0.94142865	      0.78572157	      6.77111666	    -32.87604006	    -32.69638594	      1.26988317	      0.02216364	    -21.92900458	      0.00000000	      0.00000000	      2.45352951	    -34.03645918	    -33.67092132	      1.84751048	      0.03224514	    -20.84140324	      0.00000000	      0.00000000	     -2.04732432	     -3.09974574	      8.00790825	      0.00000000	    -15.00032043	      0.00000000	     75.00017587	     45.00000026	      0.00000000	      0.00000000	      0.00000000	    -15.00032043	      0.00000000	     75.00017587	     45.00000026	      0.00000000	      0.00000000
      6.47500000	     89.54160024	     89.78685972	     89.54416007	      0.23427084	      0.94152515	      0.78560931	      6.82602991	    -32.87834574	    -32.57977844	      1.31004033	      0.02286452	    -21.93235439	      0.00000000	      0.00000000	      2.42104217	    -34.03188931	    -33.75192322	      1.82780775	      0.03190126	    -20.83560023	      0.00000000	      0.00000000	     -1.86116969	     -3.10485932	      8.05276579	      0.00000000	    -15.00032040	      0.00000000	     75.00017587	     45.00000026	      0.00000000	      0.00000000	      0.00000000	    -15.00032040	      0.00000000	     75.00017587	     45.00000026	      0.00000000	      0.00000000
      6.48000000	     89.55057035	     89.80836447	     89.55244263	      0.23416355	      0.94156611	      0.78554256	      6.74890775	    -32.87265860	    -32.70061590	      1.26484745	      0.02207575	    -21.82412765	      0.00000000	      0.00000000	      2.39019070	    -34.02158827	    -33.76021749	      1.79931321	      0.03140394	    -20.82873286	      0.00000000	      0.00000000	     -1.88871618	     -3.10796676	      8.12711818	      0.00000000	    -15.00032025	      0.00000000	     75.00017587	     45.00000026	      0.00000000	      0.00000000	      0.00000000	    -15.00032025	      0.00000000	     75.00017587	     45.00000026	      0.00000000	      0.00000000
      6.48500000	     89.52352585	     89.78778127	     89.52603643	      0.23412315	      0.94165323	      0.78543628	      6.82209119	    -32.86904513	    -32.58780115	      1.29768576	      0.02264889	    -21.83137421	      0.00000000	      0.00000000	      2.35511691	    -34.01966585	    -33.84410445	      1.77647387	      0.03100532	    -20.81659013	      0.00000000	      0.00000000	     -1.73546983	     -3.11088796	      8.16182525	      0.00000000	    -15.00032022	      0.00000000	     75.00017587	     45.00000026	      0.00000000	      0.00000000	      0.00000000	    -15.00032022	      0.00000000	     75.00017587	     45.00000026	      0.00000000	      0.00000000
      6.49000000	     89.51470531	     89.80927488	     89.51696062	      0.23419473	      0.94167629	      0.78538790	      6.80066249	    -32.86383677	    -32.62966252	      1.27108985	      0.02218470	    -21.78134701	      0.00000000	      0.00000000	      2.30540196	    -34.00394146	    -33.90364861	      1.74352423	      0.03043024	    -20.78974960	      0.00000000	      0.00000000	     -1.82303499	     -3.10479070	      8.18909400	      0.00000000	    -15.00032013	      0.00000000	     75.00017587	     45.00000026	      0.00000000	      0.00000000	      0.00000000	    -15.00032013	      0.00000000	     75.00017587	     45.00000026	      0.00000000	      0.00000000
      6.49500000	     89.50689952	     89.80926300	     89.50905225	      0.23428139	      0.94171172	      0.78530254	      6.80373081	    -32.85861697	    -32.66247301	      1.25272774	      0.02186422	    -21.75593511	      0.00000000	      0.00000000	      2.28093279	    -33.99326749	    -33.93894468	      1.70755362	      0.02980243	    -20.76132901	      0.00000000	      0.00000000	     -1.82463833	     -3.11236552	      8.21461990	      0.00000000	    -15.00032001	      0.00000000	     75.00017587	     45.00000026	      0.00000000	      0.00000000	      0.00000000	    -15.00032001	      0.00000000	     75.00017587	     45.00000026	      0.00000000	      0.00000000
      6.50000000	     89.48334518	     89.79388593	     89.48571425	      0.23450432	      0.94173883	      0.78521652	      6.88125120	    -32.85871599	    -32.56304569	      1.27600651	      0.02227051	    -21.76864799	      0.00000000	      0.00000000	      2.27059512	    -33.98114513	    -34.02291048	      1.68171230	      0.02935142	    -20.74681084	      0.00000000	      0.00000000	     -1.72622241	     -3.11803435	      8.23602494	      0.00000000	    -15.00031998	      0.00000000	     75.00017587	     45.00000026	      0.00000000	      0.00000000	      0.00000000	    -15.00031998	      0.00000000	     75.00017587	     45.00000026	      0.00000000	      0.00000000
      6.50500000	     89.47554025	     89.81299451	     89.47793426	      0.23479223	      0.94171445	      0.78516655	      6.88746204	    -32.85923485	    -32.60470837	      1.25477650	      0.02189998	    -21.76756050	      0.00000000	      0.00000000	      2.23976601	    -33.96241552	    -34.06762091	      1.64674351	      0.02874110	    -20.71308891	      0.00000000	      0.00000000	     -1.87081104	     -3.11422410	      8.22809378	      0.00000000	    -15.00031986	      0.00000000	     75.00017587	     45.00000026	      0.00000000	      0.00000000	      0.00000000	    -15.00031986	      0.00000000	     75.00017587	     45.00000026	      0.00000000	      0.00000000
      6.51000000	     89.45506628	     89.79851609	     89.45756707	      0.23507410	      0.94168895	      0.78511219	      6.96797737	    -32.86603623	    -32.51599533	      1.27681227	      0.02228458	    -21.78787740	      0.00000000	      0.00000000	      2.22943638	    -33.94917782	    -34.13569461	      1.62303627	      0.02832733	    -20.69940261	      0.00000000	      0.00000000	     -1.80401869	     -3.12142935	      8.24005058	      0.00000000	    -15.00031983	      0.00000000	     75.00017587	     45.00000026	      0.00000000	      0.00000000	      0.00000000	    -15.00031983	      0.00000000	     75.00017587	     45.00000026	      0.00000000	      0.00000000
      6.51500000	     89.44881300	     89.81390056	     89.45121241	      0.23556815	      0.94171161	      0.78510819	      7.00007681	    -32.86396989	    -32.54673220	      1.26786240	      0.02212837	    -21.82679996	      0.00000000	      0.00000000	      2.21534037	    -33.93328735	    -34.11455298	      1.58116806	      0.02759659	    -20.68285098	      0.00000000	      0.00000000	     -1.98433168	     -3.12959823	      8.20330989	      0.00000000	    -15.00031971	      0.00000000	     75.00017587	     45.00000026	      0.00000000	      0.00000000	      0.00000000	    -15.00031971	      0.00000000	     75.00017587	     45.00000026	      0.00000000	      0.00000000
